# xmcd
#
# Track frame offsets: 
#        150
#        14180
#        31647
#        53485
#        73285
#        90712
#        104610
#        138355
#        154715
#        170790
#
# Disc length: 2522 seconds
#
# Revision: 1
# Processed by: cddbd v1.5.2PL0 Copyright (c) Steve Scherf et al.
# Submitted via: ExactAudioCopy v0.99pb5
#
DISCID=8709d80a
DTITLE=Anthony White - Could It Be Magic
DYEAR=1976
DGENRE=Funk
TTITLE0=Where Would I Be Without You
TTITLE1=Nevr Repay Your Love
TTITLE2=Could It Be Magic
TTITLE3=Stop And Think It Over
TTITLE4=There Will Never Be Another
TTITLE5=Never Let You Get Away From Me
TTITLE6=Love Grows Strong
TTITLE7=Yes You Need Love
TTITLE8=I'm So Much In Love With You
TTITLE9=Only Child's Play
EXTD=
EXTT0=
EXTT1=
EXTT2=
EXTT3=
EXTT4=
EXTT5=
EXTT6=
EXTT7=
EXTT8=
EXTT9=
PLAYORDER=
